<svg width="264" height="90" viewBox="0 0 264 90" fill="none" xmlns="http://www.w3.org/2000/svg">
<path d="M44.6814 74.4545H30.5443L30.1316 69.3409C27.2422 73.5341 22.9083 75.0682 15.7881 75.0682C8.66799 75.0682 0.309571 70.875 0.309571 59.0114C0.309571 19.0227 0.206381 18.4091 0 18.2045C0 18.2045 15.0658 18.2045 14.9626 18.2045C15.0658 18.2045 15.169 19.2273 15.169 56.6591C15.169 61.5682 17.8519 63.2045 21.7732 63.2045C26.8295 63.2045 29.7188 60.5455 29.7188 55.3295V18.2045H44.475C44.475 18.2045 44.475 58.1932 44.475 66.8864C44.475 70.6705 44.5782 73.7386 44.6814 74.4545Z" fill="white"/>
<path d="M68.8094 14.1136V0H53.5373V14.1136H68.8094ZM68.8094 74.4545C68.603 74.25 68.603 73.4318 68.603 69.5454C68.603 63.5114 68.603 18.2045 68.603 18.2045H53.7436C53.7436 18.2045 53.7436 61.0568 53.7436 69.75C53.7436 73.7386 53.7436 74.3523 54.1564 74.4545H68.8094Z" fill="white"/>
<path d="M98.6927 16.9773C84.1429 16.9773 78.0547 24.75 77.4355 32.1136C77.3323 33.8523 77.2291 39.7841 77.4355 41.8295C77.7451 46.4318 79.6025 49.9091 82.9046 51.5455C78.3642 52.4659 75.4749 56.3523 75.4749 60.3409C75.4749 64.5341 77.6419 68.1136 82.8014 68.8295C77.8483 70.0568 74.1334 72.3068 74.1334 77.9318C74.1334 86.3182 82.6982 90 99.7246 90C117.577 90 125.832 84.4773 125.832 74.5568C125.832 65.7614 120.363 59.8295 100.963 60.1364C90.1279 60.1364 87.5482 59.9318 87.5482 57.2727C87.5482 55.9432 88.3737 55.3295 89.612 55.125C91.1598 56.1477 95.2874 57.1705 100.241 57.1705C111.901 57.1705 119.021 51.4432 120.259 43.4659C120.672 41.1136 120.775 36.2045 120.672 34.4659C120.466 31.6023 119.64 28.4318 118.712 27C119.228 26.4886 125.625 26.2841 126.348 26.2841V17.7955C122.323 17.5909 116.957 18.5114 114.378 21.2727C112.107 19.2273 107.258 16.9773 98.6927 16.9773ZM99.0023 28.8409C103.852 28.8409 106.122 31.0909 106.432 33.9545C106.638 35.5909 106.742 38.6591 106.432 41.0114C106.019 43.9773 104.059 46.2273 98.8991 46.2273C93.946 46.2273 91.779 43.9773 91.4694 41.0114C91.1598 38.1477 91.263 35.7955 91.4694 34.4659C91.9853 30.7841 93.5332 28.8409 99.0023 28.8409ZM99.2087 79.4659C90.0247 79.4659 86.8258 77.9318 86.8258 75.0682C86.8258 72.7159 88.1673 71.6932 90.8502 70.875C92.2949 70.9773 97.0417 70.9773 100.447 71.0795C110.456 71.3864 112.107 72.1023 112.107 74.9659C112.107 77.9318 108.909 79.4659 99.2087 79.4659Z" fill="white"/>
<path d="M175.033 74.4545C174.31 73.5341 174.104 67.9091 174.104 63.6136C174.104 59.4205 174.104 52.3636 174.207 48.2727C174.31 43.3636 174.207 35.1818 173.898 31.0909C173.175 22.5 166.881 17.0795 153.053 17.0795C137.368 17.0795 130.867 25.875 130.867 37.0227H144.798C144.798 32.625 146.655 28.9432 152.434 28.9432C157.077 28.9432 159.554 30.6818 159.864 33.6477C159.967 35.3864 159.967 38.1477 159.967 39.5795C156.252 39.375 153.053 39.4773 149.751 39.7841C135.098 41.3182 129.732 47.5568 128.597 55.0227C128.184 57.5795 128.391 60.4432 128.7 63.1023C129.526 70.6705 136.13 74.9659 144.488 74.9659C152.124 74.9659 157.077 73.125 160.276 69.75C160.276 72.4091 160.792 74.4545 161.205 74.4545H175.033ZM160.173 49.2955C160.173 56.6591 159.141 63.9205 150.061 63.9205C144.695 63.9205 142.734 62.1818 142.734 57.1705C142.734 51.5455 147.584 49.0909 154.188 49.0909C156.458 49.0909 158.316 49.1932 160.173 49.2955Z" fill="white"/>
<path d="M211.649 30.8864V18.2045H200.505C200.505 17.2841 200.505 6.85228 200.505 6.85228L186.161 7.05682C186.161 7.05682 185.851 17.4886 185.645 18.2045H179.557V30.8864H185.852C185.852 43.2614 185.852 49.7045 185.852 61.0568C185.852 71.6932 193.075 74.9659 200.298 74.9659C204.632 74.9659 208.657 74.6591 211.03 74.0455V62.3864C209.585 62.5909 207.728 62.7955 206.077 62.7955C202.362 62.7955 200.814 61.7727 200.814 57.7841C200.814 48.8864 200.814 40.2955 200.814 30.8864H211.649Z" fill="white"/>
<path d="M262.936 56.1477H249.006C249.006 57.6818 248.49 59.625 247.045 61.1591C245.394 62.8977 243.021 63.5114 240.131 63.5114C236.416 63.5114 233.527 61.9773 232.289 59.8295C231.154 57.7841 230.741 53.8977 230.638 51.2386H263.246C263.762 41.0114 262.833 32.4205 260.15 27.6136C257.054 22.0909 250.76 17.1818 240.234 17.1818C230.019 17.1818 223.311 21.375 220.319 26.7955C217.326 32.2159 216.294 39.6818 216.294 46.3295C216.294 54.5114 217.636 61.2614 219.803 65.5568C223.311 72.5114 230.844 75.2727 240.131 75.2727C248.696 75.2727 253.959 73.2273 257.777 69.2386C261.698 65.1477 262.936 59.5227 262.936 56.1477ZM249.006 40.9091H230.638C230.741 38.25 230.844 35.0795 232.392 32.9318C233.837 30.7841 236.52 29.25 240.131 29.25C243.846 29.25 246.426 30.6818 247.664 32.7273C248.696 34.3636 249.006 37.8409 249.006 40.9091Z" fill="white"/>
</svg>
